#!OML:ASF E:\Steps\Project 1\Capture day 1\Session 2\Subject.ASF
:FULLY-SPECIFIED
:DEGREES
492
root 11.8334 17.0443 7.69346 -154.102 -2.32588 177.871
lowerback -33.217 -2.67572 -7.26325
upperback -2.60874 -1.8725 -0.256268
thorax 14.3344 -1.71187 2.71968
lowerneck -5.31583 -0.950271 -0.233469
upperneck 0.0427023 -1.22831 2.46776
head 0.91634 -0.549505 0.770815
rclavicle 7.95139e-016 -2.38542e-015
rhumerus -39.3096 -27.2096 -72.4126
rradius 21.7655
rwrist 6.88684
rhand -4.81077 -53.2294
rfingers 7.12502
rthumb 20.9752 -82.1152
lclavicle 7.95139e-016 -2.38542e-015
lhumerus -31.6718 9.20009 79.8595
lradius 15.3255
lwrist -10.4347
lhand -20.789 -9.62012
lfingers 7.12502
lthumb 5.57807 20.2865
rfemur -20.5253 5.58123 20.8856
rtibia 10.7652
rfoot -24.532 -6.53092
rtoes -21.7924
lfemur -19.9862 -5.90861 -23.6425
ltibia 7.39188
lfoot -8.50873 -5.74762
ltoes -12.0707
493
root 11.8326 17.0474 7.6971 -154.159 -2.2562 177.839
lowerback -33.1768 -2.68663 -7.36413
upperback -2.57607 -1.84497 -0.24377
thorax 14.3548 -1.7038 2.80014
lowerneck -5.39402 -1.03575 -0.0886976
upperneck 0.145886 -1.35361 2.21779
head 0.959637 -0.61606 0.665723
rclavicle -3.72721e-016 -6.36111e-015
rhumerus -39.0415 -26.8883 -72.7165
rradius 22.0017
rwrist 6.55659
rhand -4.36049 -53.231
rfingers 7.12502
rthumb 21.4078 -82.0683
lclavicle -3.72721e-016 -6.36111e-015
lhumerus -31.546 8.50985 80.3889
lradius 15.6575
lwrist -9.74106
lhand -20.8279 -9.55395
lfingers 7.12502
lthumb 5.54051 20.3536
rfemur -20.5067 5.6478 20.8127
rtibia 10.7838
rfoot -24.5516 -6.63776
rtoes -22.036
lfemur -19.9391 -5.84276 -23.7067
ltibia 7.37748
lfoot -8.52586 -5.70553
ltoes -12.6387
494
root 11.8311 17.0492 7.69954 -154.207 -2.18359 177.732
lowerback -33.0979 -2.71927 -7.51804
upperback -2.55298 -1.82911 -0.24552
thorax 14.3485 -1.70337 2.88956
lowerneck -5.21105 -0.88324 -0.421463
upperneck -0.063092 -1.12579 2.4775
head 0.865588 -0.500309 0.807939
rclavicle -5.81445e-015 -2.98177e-014
rhumerus -38.7886 -26.2783 -73.1865
rradius 22.3289
rwrist 5.78988
rhand -4.40248 -53.3009
rfingers 7.12502
rthumb 21.3674 -82.1428
lclavicle -5.81445e-015 -2.98177e-014
lhumerus -31.4277 7.99006 80.8401
lradius 15.9697
lwrist -9.21219
lhand -20.8527 -9.71997
lfingers 7.12502
lthumb 5.51655 20.1882
rfemur -20.4783 5.71863 20.6421
rtibia 10.7734
rfoot -24.5 -6.67901
rtoes -21.7688
lfemur -19.8734 -5.82806 -23.8507
ltibia 7.35138
lfoot -8.55925 -5.74356
ltoes -12.3783
495
root 11.8281 17.0489 7.70461 -154.211 -2.18213 177.793
lowerback -33.043 -2.67342 -7.4498
upperback -2.56551 -1.7984 -0.249833
thorax 14.3073 -1.68404 2.86383
lowerneck -5.13977 -0.935784 -0.576588
upperneck -0.220186 -1.18111 2.76315
head 0.809687 -0.523124 0.921769
rclavicle 6.53505e-015 5.56597e-015
rhumerus -38.6186 -25.8669 -73.6035
rradius 22.6427
rwrist 5.14965
rhand -4.81159 -52.8383
rfingers 7.12502
rthumb 20.9744 -81.7242
lclavicle 6.53505e-015 5.56597e-015
lhumerus -31.3154 7.47776 81.2445
lradius 16.2507
lwrist -8.88863
lhand -21.0772 -9.76998
lfingers 7.12502
lthumb 5.29977 20.1437
rfemur -20.5421 5.73301 20.6976
rtibia 10.8498
rfoot -24.5028 -6.66632
rtoes -21.8735
lfemur -19.8994 -5.82081 -23.7854
ltibia 7.37165
lfoot -8.55807 -5.77298
ltoes -11.9961
496
root 11.8254 17.0489 7.71044 -154.234 -2.16452 177.876
lowerback -32.9864 -2.595 -7.36659
upperback -2.57446 -1.72775 -0.271044
thorax 14.2649 -1.64563 2.82857
lowerneck -5.14368 -0.799789 -0.549476
upperneck -0.00292557 -1.14525 2.79642
head 0.877775 -0.563209 0.927915
rclavicle 6.70898e-015 -6.36111e-015
rhumerus -38.4762 -25.6596 -73.942
rradius 22.9247
rwrist 4.66783
rhand -5.23509 -52.3165
rfingers 7.12502
rthumb 20.5675 -81.2469
lclavicle 6.70898e-015 -6.36111e-015
lhumerus -31.1362 7.05113 81.5605
lradius 16.4109
lwrist -8.74805
lhand -21.1963 -10.0676
lfingers 7.12502
lthumb 5.18477 19.849
rfemur -20.5958 5.78391 20.7757
rtibia 10.9449
rfoot -24.5963 -6.73325
rtoes -22.4231
lfemur -19.9005 -5.84953 -23.6823
ltibia 7.39058
lfoot -8.50837 -5.75044
ltoes -10.8424
497
root 11.8214 17.0484 7.71323 -154.271 -2.11544 177.877
lowerback -32.9368 -2.53901 -7.33927
upperback -2.579 -1.66373 -0.305854
thorax 14.2309 -1.61374 2.80483
lowerneck -5.07395 -0.867771 -0.547428
upperneck -0.00283644 -1.23643 2.84549
head 0.868056 -0.608527 0.940884
rclavicle 5.96354e-015 -2.82274e-014
rhumerus -38.3799 -25.3176 -74.298
rradius 23.3283
rwrist 4.12071
rhand -5.32949 -52.56
rfingers 7.12502
rthumb 20.4768 -81.5002
lclavicle 5.96354e-015 -2.82274e-014
lhumerus -30.993 6.45843 81.973
lradius 16.6457
lwrist -8.23715
lhand -21.1168 -10.3335
lfingers 7.12502
lthumb 5.26155 19.5811
rfemur -20.5897 5.75526 20.7558
rtibia 10.9896
rfoot -24.6859 -6.6712
rtoes -22.4264
lfemur -19.837 -5.79772 -23.7264
ltibia 7.32435
lfoot -8.47001 -5.7453
ltoes -10.9869
498
root 11.817 17.0486 7.71616 -154.292 -2.08 177.891
lowerback -32.8681 -2.49613 -7.29742
upperback -2.58277 -1.62505 -0.315965
thorax 14.1936 -1.59184 2.79037
lowerneck -5.11985 -0.949812 -0.525064
upperneck 0.00844457 -1.34949 2.87997
head 0.881639 -0.664686 0.945186
rclavicle 1.16289e-014 -3.57812e-015
rhumerus -38.2313 -24.9813 -74.6256
rradius 23.7706
rwrist 3.65009
rhand -5.33823 -53.1235
rfingers 7.12502
rthumb 20.4684 -82.0646
lclavicle 1.16289e-014 -3.57812e-015
lhumerus -30.9106 5.66449 82.5335
lradius 17.0551
lwrist -7.45833
lhand -21.2155 -10.4093
lfingers 7.12502
lthumb 5.16629 19.5077
rfemur -20.5713 5.72199 20.754
rtibia 10.9845
rfoot -24.6655 -6.57678
rtoes -22.0414
lfemur -19.811 -5.69654 -23.7666
ltibia 7.25117
lfoot -8.42861 -5.70171
ltoes -12.4942
